<svg width="592" height="864" viewBox="0 0 592 864" fill="none" xmlns="http://www.w3.org/2000/svg">
<g clip-path="url(#clip0_3_2)">
<path fill-rule="evenodd" clip-rule="evenodd" d="M444.1 0.619995C449.24 1.99 457.27 12.79 461.1 16.62L501.1 56.62C505.17 60.69 517.31 69.64 518.1 75.62C514.18 78.89 512.05 86.17 509.1 90.62H508.1L507.1 93.62L505.1 94.62V96.62L503.1 97.62V99.62L500.1 101.62V103.62L498.1 104.62V106.62L495.1 108.62V110.62L492.1 112.62V114.62L487.1 118.62V120.62L484.1 122.62L482.1 125.62H481.1V127.62L475.1 132.62V134.62L457.1 151.62L450.1 159.62H448.1L441.1 167.62H439.1L436.1 171.62H434.1L433.1 173.62H432.1L431.1 175.62H429.1L428.1 177.62L425.1 178.62L422.1 182.62H420.1L418.1 185.62H416.1L414.1 188.62H412.1L411.1 190.62L408.1 191.62V192.62H406.1L405.1 194.62H403.1L402.1 196.62H400.1L399.1 198.62H397.1V199.62H395.1L394.1 201.62L390.1 202.62L389.1 204.62H387.1V205.62H385.1L384.1 207.62L378.1 209.62L377.1 211.62H375.1L373.1 213.62H371.1V214.62H369.1V215.62H367.1V216.62H365.1V217.62H363.1V218.62H361.1V219.62L355.1 221.62V222.62H352.1V223.62L348.1 224.62V225.62H345.1V226.62L341.1 227.62V228.62H338.1V229.62H336.1V230.62H333.1V231.62L329.1 232.62V233.62L320.1 235.62V236.62H318.1V237.62H315.1V238.62H313.1V239.62L304.1 241.62V242.62H301.1V243.62H298.1V244.62H295.1V245.62H292.1V246.62H289.1V247.62H286.1V248.62L280.1 249.62V250.62H276.1V251.62L270.1 252.62V253.62H267.1V254.62H264.1V255.62H261.1V256.62H258.1V257.62H255.1V258.62L249.1 259.62V260.62L243.1 261.62V262.62L234.1 264.62V265.62H232.1V266.62L226.1 267.62V268.62H224.1V269.62L218.1 270.62V271.62L213.1 272.62V273.62H211.1V274.62H208.1V275.62L204.1 276.62V277.62H202.1V278.62H199.1V279.62L193.1 281.62V282.62H191.1V283.62L187.1 284.62L186.1 286.62L180.1 288.62L179.1 290.62L175.1 291.62L174.1 293.62L170.1 294.62L169.1 296.62H167.1L165.1 299.62H163.1L162.1 301.62H160.1L159.1 303.62L156.1 304.62L153.1 308.62H151.1L142.1 318.62H140.1L138.1 320.62V322.62L128.1 331.62V333.62L124.1 336.62V338.62L121.1 340.62V342.62L118.1 344.62V346.62L116.1 347.62V349.62L114.1 350.62L113.1 353.62H112.1L111.1 357.62L109.1 358.62L108.1 362.62L106.1 363.62V365.62L104.1 367.62V369.62H103.1V371.62H102.1V373.62L100.1 374.62V377.62H99.1V379.62H98.1L97.1 383.62H96.1V386.62H95.1V388.62H94.1V391.62H93.1V393.62H92.1V396.62H91.1V399.62H90.1V402.62H89.1V406.62H88.1V409.62H87.1V413.62H86.1V417.62H85.1V422.62H84.1V428.62H83.1V434.62H82.1V443.62H81.1V460.62C81.1 476.59 83.01 492.48 87.1 504.62L89.1 516.62H90.1V519.62H91.1V522.62H92.1V525.62H93.1V528.62H94.1V531.62H95.1L96.1 537.62H97.1V539.62H98.1V542.62H99.1L101.1 548.62H102.1V550.62H103.1V553.62H104.1L106.1 559.62H107.1V561.62H108.1L109.1 565.62L111.1 566.62V568.62H112.1V570.62H113.1V572.62L115.1 574.62V576.62L117.1 577.62L119.1 583.62L121.1 584.62V586.62L123.1 587.62L124.1 591.62L127.1 593.62V595.62L129.1 596.62L130.1 599.62H131.1V601.62L133.1 602.62V604.62L136.1 606.62V608.62L139.1 610.62V612.62L142.1 614.62V616.62L146.1 619.62V621.62L150.1 624.62V626.62L156.1 631.62V633.62L159.1 635.62L169.1 646.62H167.1L161.1 639.62H159.1L151.1 630.62L148.1 629.62L139.1 619.62H137.1V618.62L134.1 616.62L130.1 611.62H128.1L119.1 601.62H117.1L108.1 591.62H106.1L98.1 582.62H96.1L87.1 572.62L76.1 562.62V560.62L68.1 553.62V551.62L63.1 547.62V545.62L59.1 542.62V540.62L56.1 538.62V536.62L53.1 534.62V532.62L50.1 530.62V528.62L48.1 527.62V525.62L46.1 524.62V522.62L44.1 521.62V519.62L42.1 518.62V516.62L40.1 515.62L39.1 511.62H38.1L37.1 508.62L35.1 507.62L34.1 503.62L32.1 502.62V500.62H31.1V498.62L29.1 496.62V494.62L27.1 493.62L26.1 489.62H25.1L24.1 485.62H23.1V482.62H22.1V480.62H21.1L20.1 476.62H19.1V473.62H18.1V471.62H17.1V468.62H16.1V466.62H15.1L14.1 460.62H13.1V457.62H12.1V454.62H11.1V451.62H10.1V448.62H9.10001V445.62H8.10001L6.10001 433.62H5.10001V428.62H4.10001V423.62H3.10001V416.62H2.10001V407.62H1.10001C-0.28999 402.64 1.06001 381.29 2.10001 377.62V369.62H3.10001V362.62H4.10001V357.62H5.10001V352.62L15.1 321.62H16.1L17.1 317.62H18.1V315.62H19.1V312.62H20.1L22.1 306.62H23.1L24.1 302.62L26.1 301.62L28.1 295.62L30.1 294.62V292.62L32.1 291.62V289.62L34.1 288.62V286.62L36.1 285.62V283.62H37.1L38.1 280.62L40.1 279.62V277.62L43.1 275.62V273.62L46.1 271.62V269.62L51.1 265.62V263.62L59.1 256.62V254.62L61.1 253.62L65.1 248.62H67.1L75.1 239.62H77.1L81.1 234.62H83.1L85.1 231.62H87.1L89.1 228.62H91.1L92.1 226.62L95.1 225.62V224.62H97.1L98.1 222.62L102.1 221.62L103.1 219.62L107.1 218.62L108.1 216.62H110.1V215.62H112.1V214.62H114.1L116.1 212.62H118.1L119.1 210.62L123.1 209.62V208.62L127.1 207.62V206.62H130.1V205.62H132.1V204.62L138.1 202.62V201.62H141.1V200.62H143.1V199.62H146.1V198.62H148.1V197.62L154.1 196.62V195.62H156.1V194.62L162.1 193.62V192.62H164.1V191.62L170.1 190.62V189.62H172.1V188.62H175.1V187.62H178.1V186.62H181.1V185.62H184.1V184.62H186.1V183.62L204.1 178.62V177.62H207.1V176.62H210.1V175.62H213.1V174.62H216.1V173.62H219.1V172.62H222.1V171.62L228.1 170.62V169.62L237.1 167.62V166.62H239.1V165.62L245.1 164.62V163.62L249.1 162.62V161.62L267.1 155.62V154.62H269.1V153.62H271.1V152.62H273.1V151.62H276.1V150.62H278.1V149.62L282.1 148.62V147.62H285.1V146.62L291.1 144.62V143.62H293.1V142.62L299.1 140.62L300.1 138.62H302.1V137.62H304.1L306.1 135.62H308.1L309.1 133.62H311.1V132.62H313.1L314.1 130.62L318.1 129.62L319.1 127.62L323.1 126.62L324.1 124.62H326.1L327.1 122.62H329.1L330.1 120.62L334.1 119.62L336.1 116.62H338.1L339.1 114.62H341.1L343.1 111.62H345.1L347.1 108.62H349.1L351.1 105.62H353.1L355.1 102.62H357.1L360.1 98.62H362.1L364.1 95.62H365.1L366.1 93.62H368.1V92.62C370.39 90.7 371.82 88.55 375.1 87.62V85.62H377.1L397.1 64.62L401.1 61.62V59.62L408.1 53.62V51.62L414.1 46.62V44.62L418.1 41.62V39.62L421.1 37.62V35.62L424.1 33.62V31.62L427.1 29.62V27.62L429.1 26.62L430.1 23.62H431.1V21.62L433.1 20.62V18.62L435.1 17.62V15.62L437.1 14.62V12.62L439.1 11.62C440.82 9.03 443.37 3.88 444.1 0.619995Z" fill="white"/>
<path fill-rule="evenodd" clip-rule="evenodd" d="M423.1 702.62V717.62H422.1V716.62H416.1V715.62C410.93 714.18 405.01 716.39 402.1 717.62C401.39 719.49 401.11 721.53 401.1 724.62L404.1 726.62V727.62H407.1V728.62H409.1V729.62H412.1V730.62H414.1V731.62H417.1V732.62H419.1L420.1 734.62H422.1C423.93 735.93 424.85 738.65 426.1 740.62H427.1V744.62H428.1L427.1 756.62H426.1V758.62H425.1C416.91 773.33 404.44 772.06 384.1 770.62L385.1 755.62C391.97 756.96 398.22 758.07 406.1 756.62C407.81 753.68 408.99 753.76 409.1 748.62C407.96 747.48 408.7 748.62 408.1 746.62L390.1 739.62L383.1 731.62C382.8 726.83 381.73 724.85 383.1 720.62V716.62C384.05 714.26 386.24 712.82 387.1 709.62C389.35 709.03 389.59 708.78 391.1 707.62V706.62L397.1 704.62V703.62C405.07 700.45 413.92 702.63 423.1 702.62Z" fill="white"/>
<path fill-rule="evenodd" clip-rule="evenodd" d="M11.1 703.62H28.1V770.62H11.1V703.62Z" fill="white"/>
<path fill-rule="evenodd" clip-rule="evenodd" d="M121.1 703.62H144.1C144.74 704.85 145.74 705.06 146.1 705.62V707.62H147.1V709.62L149.1 710.62V712.62L151.1 713.62L152.1 717.62L154.1 718.62L155.1 722.62L157.1 723.62V725.62L159.1 726.62L160.1 730.62L162.1 731.62L163.1 735.62L165.1 736.62V738.62C166.54 741.19 168.3 743.12 169.1 746.62H170.1V703.62H186.1V770.62H163.1L159.1 762.62L157.1 761.62L156.1 757.62L154.1 756.62L153.1 752.62L151.1 751.62V749.62L149.1 748.62V746.62H148.1V744.62L146.1 743.62L145.1 739.62L143.1 738.62V736.62C141.65 734.05 139.9 732.12 139.1 728.62H138.1V770.62H121.1V703.62Z" fill="white"/>
<path fill-rule="evenodd" clip-rule="evenodd" d="M304.1 703.62H322.1C321.96 718.17 319.73 742.86 324.1 753.62C325.73 754.54 328.54 757.06 330.1 757.62C336.29 759.83 342.68 755.52 346.1 754.62L347.1 751.62H348.1V749.62H349.1V704.62C353.15 703.11 360.49 703.57 366.1 703.62V751.62H365.1V755.62H364.1V757.62H363.1V759.62H362.1C360.94 761.14 360.72 761.38 360.1 763.62C357.87 764.24 357.6 764.45 356.1 765.62V766.62H354.1L353.1 768.62H350.1V769.62H347.1V770.62H343.1V771.62C338.53 772.98 329.15 771.6 326.1 770.62H322.1V769.62L316.1 768.62L315.1 766.62H313.1L312.1 764.62L308.1 761.62V759.62L306.1 758.62L305.1 750.62H304.1V703.62Z" fill="white"/>
<path fill-rule="evenodd" clip-rule="evenodd" d="M445.1 703.62H462.1V728.62H490.1V703.62H507.1V770.62H490.1V744.62C483.32 742.11 470.68 743.57 462.1 743.62V770.62H445.1V703.62Z" fill="white"/>
<path fill-rule="evenodd" clip-rule="evenodd" d="M287.1 764.62H286.1V762.62C285.43 762.29 284.77 761.95 284.1 761.62C283.77 760.62 283.43 759.62 283.1 758.62H282.1V756.62C281.1 755.95 280.1 755.29 279.1 754.62C278.77 753.29 278.43 751.95 278.1 750.62C277.1 749.95 276.1 749.29 275.1 748.62V746.62C274.43 746.29 273.77 745.95 273.1 745.62C272.77 744.62 272.43 743.62 272.1 742.62H271.1C273.84 739.57 278.82 739.18 282.1 736.62C286.57 733.12 289.81 717.53 284.1 712.62C280.72 699.64 251.38 703.28 236.1 703.62V770.62H253.1V745.62C256.08 747.38 256.33 749.6 258.1 752.62H259.1V754.62C259.77 754.95 260.43 755.29 261.1 755.62V757.62C261.77 757.95 262.43 758.29 263.1 758.62V760.62C263.77 760.95 264.43 761.29 265.1 761.62V763.62C265.77 763.95 266.43 764.29 267.1 764.62V766.62H268.1V768.62C268.47 769.19 269.46 769.37 270.1 770.62H290.1C289.44 767.82 288.59 766.49 287.1 764.62ZM267.1 730.62C264.05 731.35 265.01 732.18 264.1 732.62H260.1V733.62C257.01 733.62 254.97 733.33 253.1 732.62C253.05 727.01 252.59 719.67 254.1 715.62C258.51 715.6 263.5 715.88 266.1 717.62V718.62C266.77 718.95 267.43 719.29 268.1 719.62V721.62H269.1C268.96 726.27 267.82 727.14 267.1 730.62Z" fill="white"/>
<path fill-rule="evenodd" clip-rule="evenodd" d="M588.1 720.62H587.1V718.62C586.43 718.29 585.77 717.95 585.1 717.62V715.62C584.43 715.29 583.77 714.95 583.1 714.62V712.62C578.77 709.95 574.43 707.29 570.1 704.62H566.1C555 701 540.66 703.44 527.1 703.62V770.62C544.23 770.85 564.5 772.28 575.1 765.62C575.43 764.95 575.77 764.29 576.1 763.62H578.1C579.43 761.95 580.77 760.29 582.1 758.62C582.77 758.29 583.43 757.95 584.1 757.62V755.62C584.77 755.29 585.43 754.95 586.1 754.62C586.43 752.95 586.77 751.29 587.1 749.62H588.1V747.62H589.1V742.62H590.1C591.6 737.54 589.5 723.77 588.1 720.62ZM571.1 744.62C569.11 746.35 570.26 746.95 569.1 748.62C567.43 749.95 565.77 751.29 564.1 752.62V753.62H562.1V754.62C560.43 754.95 558.77 755.29 557.1 755.62V756.62C552.53 756.67 547.2 756.78 544.1 755.62C544.05 745.53 542.33 724.14 545.1 716.62C550.43 716.95 555.77 717.29 561.1 717.62C562.84 719.59 563.42 718.47 565.1 719.62C566.1 720.95 567.1 722.29 568.1 723.62H569.1C572.98 729.38 571.58 737.05 571.1 744.62Z" fill="white"/>
<path fill-rule="evenodd" clip-rule="evenodd" d="M103.1 744.62H102.1C101.63 739.83 98.35 736.54 94.1 735.62C95.36 731.57 94.84 734.41 97.1 732.62C97.43 731.95 97.77 731.29 98.1 730.62H99.1C100.37 728.79 103.68 719.02 102.1 714.62H101.1C100.77 713.29 100.43 711.95 100.1 710.62H99.1C98.1 709.29 97.1 707.95 96.1 706.62C94.77 706.29 93.43 705.95 92.1 705.62V704.62C88.43 704.29 84.77 703.95 81.1 703.62V702.62C70.77 702.95 60.43 703.29 50.1 703.62V770.62C71.07 771.05 90.52 773.3 99.1 760.62C99.77 760.29 100.43 759.95 101.1 759.62C101.73 758.6 104.67 747.37 103.1 744.62ZM67.1 714.62C74.74 714.62 78.13 715.42 83.1 717.62C83.7 719.62 82.96 718.48 84.1 719.62C84.32 729.99 77.46 731.04 67.1 730.62V714.62ZM82.1 756.62C78.12 758.27 73.38 758.76 67.1 758.62V741.62C76.33 741.58 78.14 741.91 84.1 744.62C85.52 751.97 85.13 751.27 82.1 756.62Z" fill="white"/>
<path fill-rule="evenodd" clip-rule="evenodd" d="M303.1 800.62H308.1C308.69 801.9 309.09 802.76 310.1 803.62C309.53 805.63 310.22 804.49 309.1 805.62C307.81 807.89 307.47 808.26 304.1 808.62C302.24 805.27 301.44 805.03 303.1 800.62Z" fill="white"/>
<path fill-rule="evenodd" clip-rule="evenodd" d="M325.1 807.62L320.1 808.62C318.46 805.52 318.2 806.82 318.1 801.62C319.82 800.97 321.24 800.67 324.1 800.62C324.81 802.49 325.09 804.53 325.1 807.62Z" fill="white"/>
<path fill-rule="evenodd" clip-rule="evenodd" d="M34.1 816.62L33.1 821.62C29.81 821.23 20.9 819.08 18.1 821.62C13.69 822.61 12.94 825.01 13.1 830.62L20.1 835.62L27.1 836.62C29.53 837.69 30.94 839.79 34.1 840.62V842.62L36.1 843.62C38.09 848.41 34.74 853.75 34.1 856.62L27.1 861.62C21.61 862.01 11.91 864.47 8.09997 860.62H7.09997V856.62H8.09997V855.62C11.01 856.19 17.45 858.77 21.1 857.62C23.31 856.92 25.32 855.24 28.1 854.62C28.73 851.54 29.7 851.16 30.1 847.62C28.96 846.48 29.7 847.62 29.1 845.62C28.1 844.95 27.1 844.29 26.1 843.62V842.62H23.1V841.62H21.1V840.62H17.1V839.62H14.1V838.62H12.1L11.1 836.62C8.52997 834.78 9.23997 837.71 8.09997 833.62C6.10997 831.74 8.04997 833.14 7.09997 830.62C4.36997 823.39 10.7 820.58 14.1 816.62C20.74 816.26 27.49 815.41 34.1 816.62Z" fill="white"/>
<path fill-rule="evenodd" clip-rule="evenodd" d="M42.1 815.62H75.1C75.71 817.22 75.98 817.99 76.1 820.62H62.1V861.62H56.1V821.62C52.77 820.37 46.93 820.57 42.1 820.62V815.62Z" fill="white"/>
<path fill-rule="evenodd" clip-rule="evenodd" d="M87.1 815.62H92.1C94.92 823.26 93.15 840.8 93.1 850.62C95.46 852.61 95.45 854.65 99.1 855.62C100.99 857.62 99.62 855.64 102.1 856.62C107.03 858.56 109.58 856.62 114.1 855.62L116.1 852.62H117.1V850.62H118.1C121.04 843.2 119.13 825.24 119.1 815.62H124.1V850.62H123.1L122.1 855.62C119.52 857.16 116.99 860.48 114.1 861.62H110.1C102.63 863.99 98.1 860.95 92.1 859.62L87.1 852.62V815.62Z" fill="white"/>
<path fill-rule="evenodd" clip-rule="evenodd" d="M194.1 815.62H199.1V861.62H194.1V815.62Z" fill="white"/>
<path fill-rule="evenodd" clip-rule="evenodd" d="M218.1 815.62H242.1V820.62H224.1V835.62H241.1C241.68 837.15 241.86 837.26 242.1 839.62C237.81 841.22 229.98 840.67 224.1 840.62V856.62H242.1V861.62H218.1V815.62Z" fill="white"/>
<path fill-rule="evenodd" clip-rule="evenodd" d="M283.1 820.62H265.1C263.77 824.19 264.05 830.53 264.1 835.62C268.39 837.22 276.22 836.67 282.1 836.62V840.62H265.1C263.23 845.65 264.05 854.94 264.1 861.62H259.1C257.69 857.78 258.1 851 258.1 845.62V816.62C263.88 814.48 274.61 815.57 282.1 815.62C282.71 817.22 282.98 817.99 283.1 820.62Z" fill="white"/>
<path fill-rule="evenodd" clip-rule="evenodd" d="M445.1 815.62V848.62H446.1L447.1 853.62C448.9 854.56 448.67 855 451.1 855.62C455.07 859.79 462.66 856.6 467.1 855.62C468.1 853.79 470.43 851.48 471.1 849.62V816.62C472.82 815.97 474.24 815.67 477.1 815.62C477.41 828.96 479.87 855.84 470.1 858.62L469.1 860.62H466.1V861.62H463.1V862.62C459.16 863.84 449.58 862.07 448.1 860.62C444.87 859.87 441.89 856.82 441.1 853.62C437.37 849.87 439.01 824.83 439.1 816.62C440.82 815.97 442.24 815.67 445.1 815.62Z" fill="white"/>
<path fill-rule="evenodd" clip-rule="evenodd" d="M527.1 815.62H532.1C533.51 819.46 533.1 826.24 533.1 831.62V861.62H525.1C524.43 860.36 523.52 860.25 523.1 859.62V857.62L521.1 856.62V854.62L519.1 853.62V851.62L517.1 850.62V848.62L515.1 847.62V845.62L513.1 844.62V842.62L511.1 841.62V839.62L509.1 838.62V836.62L507.1 835.62V833.62L505.1 832.62V830.62H504.1V828.62H503.1L502.1 825.62H501.1V861.62H495.1V816.62C496.97 815.91 499.01 815.63 502.1 815.62C502.77 816.88 503.68 816.99 504.1 817.62V819.62L506.1 820.62V822.62L508.1 823.62V825.62L511.1 827.62V829.62L513.1 830.62L514.1 834.62H515.1L516.1 837.62L518.1 838.62V840.62C520.59 844.36 524.77 847.65 526.1 852.62H527.1V815.62Z" fill="white"/>
<path fill-rule="evenodd" clip-rule="evenodd" d="M179.1 835.62V829.62H178.1C177.77 828.29 177.43 826.95 177.1 825.62H176.1V823.62H175.1C174.1 822.29 173.1 820.95 172.1 819.62C169.29 819.03 167.33 817.36 165.1 816.62H159.1V815.62C153.22 815.57 145.39 815.02 141.1 816.62V861.62C145.77 861.95 150.43 862.29 155.1 862.62V861.62H162.1V860.62H166.1V859.62C167.43 859.29 168.77 858.95 170.1 858.62V857.62C171.62 856.46 171.85 856.21 174.1 855.62C174.72 853.37 174.94 853.15 176.1 851.62H177.1C177.43 849.95 177.77 848.29 178.1 846.62H179.1C179.43 842.95 179.77 839.29 180.1 835.62H179.1ZM171.1 847.62C170.13 851.22 167.75 851.81 166.1 854.62C164.43 854.95 162.77 855.29 161.1 855.62V856.62H154.1V857.62C152.69 857.76 154.48 856.91 153.1 856.62H147.1V820.62C154.81 820.61 162.5 820.57 167.1 823.62V824.62C168.43 825.62 169.77 826.62 171.1 827.62C172.13 832.33 175.55 843.35 171.1 847.62Z" fill="white"/>
<path fill-rule="evenodd" clip-rule="evenodd" d="M332.1 823.62H331.1C329.77 821.95 328.43 820.29 327.1 818.62C324.32 817.99 322.32 816.35 320.1 815.62H308.1V816.62C306.43 816.95 304.77 817.29 303.1 817.62V818.62H301.1V819.62C299.1 821.29 297.1 822.95 295.1 824.62C294.45 827.77 292.85 830.3 292.1 832.62C290.26 838.34 292.82 845.91 293.1 850.62C297.17 854.21 297.51 859.23 304.1 860.62C305.5 861.98 313.41 863.69 317.1 862.62V861.62C319.43 861.29 321.77 860.95 324.1 860.62C327.1 859.06 332.25 853.43 333.1 849.62C337.51 845.22 334.68 827.51 332.1 823.62ZM328.1 843.62V847.62H327.1C325.23 851.62 326.4 850.89 323.1 853.62V854.62H321.1V855.62H319.1V856.62H316.1V857.62C313.1 857.29 310.1 856.95 307.1 856.62C304.77 854.62 302.43 852.62 300.1 850.62V847.62H299.1C297.72 844.21 297.64 834 299.1 830.62H300.1V828.62H301.1V826.62H302.1C303.1 825.29 304.1 823.95 305.1 822.62H307.1V821.62H309.1V820.62C313.1 820.95 317.1 821.29 321.1 821.62V822.62C322.1 822.95 323.1 823.29 324.1 823.62C324.43 824.62 324.77 825.62 325.1 826.62H326.1V828.62H327.1V830.62H328.1V834.62H329.1C330.02 837.57 328.55 842.17 328.1 843.62Z" fill="white"/>
<path fill-rule="evenodd" clip-rule="evenodd" d="M373.1 853.62C372.1 852.95 371.1 852.29 370.1 851.62V849.62C368.43 848.29 366.77 846.95 365.1 845.62V843.62C364.1 842.95 363.1 842.29 362.1 841.62V840.62C364.43 840.29 366.77 839.95 369.1 839.62C371.1 837.95 373.1 836.29 375.1 834.62C375.68 831.88 377.46 825.1 375.1 822.62C373.14 815.04 359.22 815.28 349.1 815.62V861.62H355.1V842.62C359.45 845.12 361.2 849.61 364.1 853.62C364.77 853.95 365.43 854.29 366.1 854.62C367.77 856.95 369.43 859.29 371.1 861.62H379.1C377.1 858.95 375.1 856.29 373.1 853.62ZM355.1 836.62V820.62C359.1 820.95 363.1 821.29 367.1 821.62C367.42 821.79 368.85 823.9 370.1 824.62C370.12 831.88 369.47 831.31 367.1 835.62C363.8 836.25 359.68 836.68 355.1 836.62Z" fill="white"/>
<path fill-rule="evenodd" clip-rule="evenodd" d="M589.1 834.62V829.62H588.1V826.62C587.43 826.29 586.77 825.95 586.1 825.62V823.62H585.1C584.1 822.29 583.1 820.95 582.1 819.62C579.3 818.99 577.33 817.38 575.1 816.62C569.77 814.79 558.1 815.51 551.1 815.62V861.62C559.51 861.84 564.41 863.11 572.1 860.62H576.1V859.62H578.1V858.62H580.1C580.43 857.95 580.77 857.29 581.1 856.62C583.1 854.95 585.1 853.29 587.1 851.62C588.33 845.6 591.11 841.46 589.1 834.62ZM581.1 847.62C580.13 851.22 577.75 851.81 576.1 854.62C574.43 854.95 572.77 855.29 571.1 855.62V856.62H564.1V857.62H563.1V856.62H557.1V820.62C564.81 820.61 572.5 820.57 577.1 823.62V824.62C578.43 825.62 579.77 826.62 581.1 827.62C582.13 832.33 585.55 843.35 581.1 847.62Z" fill="white"/>
<path fill-rule="evenodd" clip-rule="evenodd" d="M420.1 840.62C418.9 839.42 417.18 838.96 416.1 837.62L415.1 836.62H417.1C418.77 834.62 420.43 832.62 422.1 830.62C422.18 826.36 422.2 822.66 420.1 820.62C418.16 817.66 418.07 819.07 415.1 817.62V816.62H411.1V815.62C405.22 815.57 397.39 815.02 393.1 816.62V861.62C396.73 862.02 402.36 863.96 407.1 862.62V861.62H413.1V860.62H416.1C416.43 859.95 416.77 859.29 417.1 858.62C418.1 858.29 419.1 857.95 420.1 857.62V855.62C420.77 855.29 421.43 854.95 422.1 854.62V851.62H423.1V844.62C421.76 843.54 421.3 841.82 420.1 840.62ZM399.1 820.62C404.31 820.51 410.55 820.01 413.1 822.62C414.61 823.58 414.8 824.57 416.1 825.62V829.62H415.1C414.35 832.67 413.19 833.91 410.1 834.62C407.65 836.9 402.1 835.91 399.1 835.62V820.62ZM415.1 854.62C412.97 855.06 409.35 856.34 408.1 857.62C404.54 857.65 401.33 857.46 399.1 856.62V840.62C404.31 840.51 410.55 840.01 413.1 842.62C415.03 843.77 415.49 845.29 417.1 846.62C416.85 850.78 415.78 851.32 415.1 854.62Z" fill="white"/>
</g>
<defs>
<clipPath id="clip0_3_2">
<rect width="591.11" height="863.58" fill="white"/>
</clipPath>
</defs>
</svg>
