<svg width="13" height="16" viewBox="0 0 13 16" fill="none" xmlns="http://www.w3.org/2000/svg">
<path d="M12 6.72727C12 11.1818 6.5 15 6.5 15C6.5 15 1 11.1818 1 6.72727C1 5.20831 1.57946 3.75155 2.61091 2.67748C3.64236 1.60341 5.04131 1 6.5 1C7.95869 1 9.35764 1.60341 10.3891 2.67748C11.4205 3.75155 12 5.20831 12 6.72727Z" stroke="black" stroke-linecap="round" stroke-linejoin="round"/>
<path d="M6.5 8.63636C7.51252 8.63636 8.33333 7.78163 8.33333 6.72727C8.33333 5.67291 7.51252 4.81818 6.5 4.81818C5.48748 4.81818 4.66667 5.67291 4.66667 6.72727C4.66667 7.78163 5.48748 8.63636 6.5 8.63636Z" stroke="black" stroke-linecap="round" stroke-linejoin="round"/>
</svg>
